# xmcd
# 
# Track frame offsets:
#   150
#   17411
#   39326
#   54830
#   72570
#   93613
#   111370
#   125804
#   144796
#   163921
#   183620
#   198864
#   215535
#   234302
#   251489
#   268040
#   285668
#   302811
# 
# Disc length: 4243 seconds
# 
# Revision: 1
# Processed by: cddbd v1.5.2PL0 Copyright (c) Steve Scherf et al.
# Submitted via: Synapstar 1.0 
# 
DISCID=07109112
DTITLE=Various Artist - tt205
DYEAR=1900
DGENRE=Country
TTITLE0=Walker, Clay - A Few Questions
TTITLE1=Morgan, Craig - Almost Home
TTITLE2=Keith, Toby and Nelson, Willie - Beer For My Horses
TTITLE3=Jackson, Alan and Buffett, Jimmy - Five O'Clock Somewhere
TTITLE4=Dixie Chicks - Godspeed
TTITLE5=Jewell, Buddy - Help Pour Out The Rain
TTITLE6=Rogers, Kenny - I'm Missing You
TTITLE7=Turner, Josh - Long Black Train
TTITLE8=McGraw, Tim - Real Good Man
TTITLE9=Brooks and Dunn - Red Dirt Road
TTITLE10=Nichols, Joe - She Only Smokes When She Drinks
TTITLE11=Hanson, Jennifer - This Far Gone
TTITLE12=Green, Pat - Wave On Wave
TTITLE13=Cagle, Chris - What A Beautiful Day
TTITLE14=Wynonna - What The World Needs
TTITLE15=Bentley, Dierks - What Was I Thinkin'
TTITLE16=Urban, Keith - Who Wouldn't Want To Be Me
TTITLE17=Hill, Faith - You're Still Here
EXTD=MediaType: Karaoke CD+G Producer: Top Tunes
EXTT0=
EXTT1=
EXTT2=
EXTT3=
EXTT4=
EXTT5=
EXTT6=
EXTT7=
EXTT8=
EXTT9=
EXTT10=
EXTT11=
EXTT12=
EXTT13=
EXTT14=
EXTT15=
EXTT16=
EXTT17=
PLAYORDER=
